<?xml version="1.0" encoding="UTF-8" standalone="no"?>
<!DOCTYPE svg PUBLIC "-//W3C//DTD SVG 1.1//EN"
 "http://www.w3.org/Graphics/SVG/1.1/DTD/svg11.dtd">
<!-- Generated by graphviz version 13.1.0 (20250701.0955)
 -->
<!-- Pages: 1 -->
<svg width="427pt" height="100pt"
 viewBox="0.00 0.00 427.00 100.00" xmlns="http://www.w3.org/2000/svg" xmlns:xlink="http://www.w3.org/1999/xlink">
<g id="graph0" class="graph" transform="scale(1 1) rotate(0) translate(4 96)">
<polygon fill="white" stroke="none" points="-4,4 -4,-96 423.25,-96 423.25,4 -4,4"/>
<!-- 4307566096 -->
<g id="node1" class="node">
<title>4307566096</title>
<polygon fill="none" stroke="black" points="363.5,-27.5 363.5,-63.5 419.25,-63.5 419.25,-27.5 363.5,-27.5"/>
<text xml:space="preserve" text-anchor="middle" x="391.38" y="-40.7" font-family="Times,serif" font-size="14.00">value 4</text>
</g>
<!-- 4307566096+ -->
<g id="node2" class="node">
<title>4307566096+</title>
<ellipse fill="none" stroke="black" cx="300.5" cy="-45.5" rx="27" ry="18"/>
<text xml:space="preserve" text-anchor="middle" x="300.5" y="-40.45" font-family="Times,serif" font-size="14.00">+</text>
</g>
<!-- 4307566096+&#45;&gt;4307566096 -->
<g id="edge1" class="edge">
<title>4307566096+&#45;&gt;4307566096</title>
<path fill="none" stroke="black" d="M327.68,-45.5C335.27,-45.5 343.72,-45.5 351.89,-45.5"/>
<polygon fill="black" stroke="black" points="351.63,-49 361.63,-45.5 351.63,-42 351.63,-49"/>
</g>
<!-- 4314761168 -->
<g id="node3" class="node">
<title>4314761168</title>
<polygon fill="none" stroke="black" points="0,-0.5 0,-36.5 55.75,-36.5 55.75,-0.5 0,-0.5"/>
<text xml:space="preserve" text-anchor="middle" x="27.88" y="-13.7" font-family="Times,serif" font-size="14.00">value 2</text>
</g>
<!-- 4314761808+ -->
<g id="node6" class="node">
<title>4314761808+</title>
<ellipse fill="none" stroke="black" cx="118.75" cy="-18.5" rx="27" ry="18"/>
<text xml:space="preserve" text-anchor="middle" x="118.75" y="-13.45" font-family="Times,serif" font-size="14.00">+</text>
</g>
<!-- 4314761168&#45;&gt;4314761808+ -->
<g id="edge5" class="edge">
<title>4314761168&#45;&gt;4314761808+</title>
<path fill="none" stroke="black" d="M56.02,-18.5C63.57,-18.5 71.9,-18.5 79.94,-18.5"/>
<polygon fill="black" stroke="black" points="79.86,-22 89.86,-18.5 79.86,-15 79.86,-22"/>
</g>
<!-- 4307491136 -->
<g id="node4" class="node">
<title>4307491136</title>
<polygon fill="none" stroke="black" points="181.75,-55.5 181.75,-91.5 237.5,-91.5 237.5,-55.5 181.75,-55.5"/>
<text xml:space="preserve" text-anchor="middle" x="209.62" y="-68.7" font-family="Times,serif" font-size="14.00">value 1</text>
</g>
<!-- 4307491136&#45;&gt;4307566096+ -->
<g id="edge4" class="edge">
<title>4307491136&#45;&gt;4307566096+</title>
<path fill="none" stroke="black" d="M237.77,-64.95C246.24,-62.28 255.71,-59.3 264.63,-56.49"/>
<polygon fill="black" stroke="black" points="265.6,-59.85 274.09,-53.51 263.5,-53.17 265.6,-59.85"/>
</g>
<!-- 4314761808 -->
<g id="node5" class="node">
<title>4314761808</title>
<polygon fill="none" stroke="black" points="181.75,-0.5 181.75,-36.5 237.5,-36.5 237.5,-0.5 181.75,-0.5"/>
<text xml:space="preserve" text-anchor="middle" x="209.62" y="-13.7" font-family="Times,serif" font-size="14.00">value 3</text>
</g>
<!-- 4314761808&#45;&gt;4307566096+ -->
<g id="edge3" class="edge">
<title>4314761808&#45;&gt;4307566096+</title>
<path fill="none" stroke="black" d="M237.77,-26.75C246.24,-29.32 255.71,-32.2 264.63,-34.91"/>
<polygon fill="black" stroke="black" points="263.5,-38.22 274.08,-37.78 265.53,-31.52 263.5,-38.22"/>
</g>
<!-- 4314761808+&#45;&gt;4314761808 -->
<g id="edge2" class="edge">
<title>4314761808+&#45;&gt;4314761808</title>
<path fill="none" stroke="black" d="M145.93,-18.5C153.52,-18.5 161.97,-18.5 170.14,-18.5"/>
<polygon fill="black" stroke="black" points="169.88,-22 179.88,-18.5 169.88,-15 169.88,-22"/>
</g>
</g>
</svg>
